<mxfile host="app.diagrams.net" modified="2021-05-22T09:47:31.944Z" agent="5.0 (Windows NT 10.0; Win64; x64) AppleWebKit/537.36 (KHTML, like Gecko) Chrome/89.0.4389.90 Safari/537.36" etag="6LaobFL3j8p1MECHP-kA" version="14.6.12" type="github">
  <diagram id="ESR1ifjW2FiHFX0X22vL" name="第 1 页">
    <mxGraphModel dx="813" dy="403" grid="1" gridSize="10" guides="1" tooltips="1" connect="1" arrows="1" fold="1" page="1" pageScale="1" pageWidth="1169" pageHeight="827" math="0" shadow="0">
      <root>
        <mxCell id="0" />
        <mxCell id="1" parent="0" />
        <mxCell id="g5aPpiikLJBW9zNcwEnP-1" value="" style="rounded=0;whiteSpace=wrap;html=1;fontSize=14;" parent="1" vertex="1">
          <mxGeometry x="80" y="110" width="710" height="304" as="geometry" />
        </mxCell>
        <mxCell id="2TULRxbm9QzcmqvMRMUv-3" style="edgeStyle=orthogonalEdgeStyle;rounded=0;orthogonalLoop=1;jettySize=auto;html=1;" parent="1" source="g5aPpiikLJBW9zNcwEnP-7" target="g5aPpiikLJBW9zNcwEnP-9" edge="1">
          <mxGeometry relative="1" as="geometry">
            <Array as="points">
              <mxPoint x="135" y="222" />
            </Array>
          </mxGeometry>
        </mxCell>
        <mxCell id="2TULRxbm9QzcmqvMRMUv-24" style="edgeStyle=orthogonalEdgeStyle;rounded=0;orthogonalLoop=1;jettySize=auto;html=1;" parent="1" source="g5aPpiikLJBW9zNcwEnP-7" target="g5aPpiikLJBW9zNcwEnP-11" edge="1">
          <mxGeometry relative="1" as="geometry">
            <Array as="points">
              <mxPoint x="135" y="343" />
            </Array>
          </mxGeometry>
        </mxCell>
        <mxCell id="g5aPpiikLJBW9zNcwEnP-7" value="数据源" style="shape=cylinder3;whiteSpace=wrap;html=1;boundedLbl=1;backgroundOutline=1;size=15;fontSize=13;" parent="1" vertex="1">
          <mxGeometry x="110" y="245" width="50" height="70" as="geometry" />
        </mxCell>
        <mxCell id="2TULRxbm9QzcmqvMRMUv-8" style="edgeStyle=orthogonalEdgeStyle;rounded=0;orthogonalLoop=1;jettySize=auto;html=1;" parent="1" source="g5aPpiikLJBW9zNcwEnP-9" edge="1">
          <mxGeometry relative="1" as="geometry">
            <mxPoint x="250" y="222" as="targetPoint" />
            <Array as="points">
              <mxPoint x="249" y="222" />
              <mxPoint x="249" y="222" />
            </Array>
          </mxGeometry>
        </mxCell>
        <mxCell id="g5aPpiikLJBW9zNcwEnP-9" value="历史数据" style="rounded=0;whiteSpace=wrap;html=1;horizontal=1;fontSize=13;" parent="1" vertex="1">
          <mxGeometry x="205" y="172" width="20" height="100" as="geometry" />
        </mxCell>
        <mxCell id="2TULRxbm9QzcmqvMRMUv-9" style="edgeStyle=orthogonalEdgeStyle;rounded=0;orthogonalLoop=1;jettySize=auto;html=1;" parent="1" source="g5aPpiikLJBW9zNcwEnP-11" edge="1">
          <mxGeometry relative="1" as="geometry">
            <mxPoint x="250" y="342" as="targetPoint" />
          </mxGeometry>
        </mxCell>
        <mxCell id="g5aPpiikLJBW9zNcwEnP-11" value="增量数据" style="rounded=0;whiteSpace=wrap;html=1;fontSize=13;" parent="1" vertex="1">
          <mxGeometry x="205" y="292.5" width="20" height="100" as="geometry" />
        </mxCell>
        <mxCell id="g5aPpiikLJBW9zNcwEnP-16" value="基于 LRFMC 的客户分群" style="rounded=0;whiteSpace=wrap;html=1;fontSize=13;" parent="1" vertex="1">
          <mxGeometry x="535" y="184" width="90" height="40" as="geometry" />
        </mxCell>
        <mxCell id="2TULRxbm9QzcmqvMRMUv-19" style="edgeStyle=orthogonalEdgeStyle;rounded=0;orthogonalLoop=1;jettySize=auto;html=1;" parent="1" source="g5aPpiikLJBW9zNcwEnP-20" target="g5aPpiikLJBW9zNcwEnP-22" edge="1">
          <mxGeometry relative="1" as="geometry" />
        </mxCell>
        <mxCell id="g5aPpiikLJBW9zNcwEnP-20" value="客户价值排名" style="rounded=0;whiteSpace=wrap;html=1;fontSize=13;" parent="1" vertex="1">
          <mxGeometry x="535" y="303" width="90" height="30" as="geometry" />
        </mxCell>
        <mxCell id="g5aPpiikLJBW9zNcwEnP-21" style="edgeStyle=orthogonalEdgeStyle;rounded=0;orthogonalLoop=1;jettySize=auto;html=1;fontSize=13;" parent="1" source="g5aPpiikLJBW9zNcwEnP-22" target="g5aPpiikLJBW9zNcwEnP-24" edge="1">
          <mxGeometry relative="1" as="geometry" />
        </mxCell>
        <mxCell id="g5aPpiikLJBW9zNcwEnP-22" value="模型应用" style="rounded=0;whiteSpace=wrap;html=1;fontSize=13;" parent="1" vertex="1">
          <mxGeometry x="535" y="361.5" width="90" height="30" as="geometry" />
        </mxCell>
        <mxCell id="g5aPpiikLJBW9zNcwEnP-23" style="edgeStyle=orthogonalEdgeStyle;rounded=0;orthogonalLoop=1;jettySize=auto;html=1;entryX=1;entryY=0.5;entryDx=0;entryDy=0;fontSize=13;exitX=0.144;exitY=0.431;exitDx=0;exitDy=0;exitPerimeter=0;" parent="1" edge="1">
          <mxGeometry relative="1" as="geometry">
            <Array as="points">
              <mxPoint x="680" y="376" />
              <mxPoint x="680" y="204" />
            </Array>
            <mxPoint x="702.96" y="376.00750000000005" as="sourcePoint" />
            <mxPoint x="625" y="204" as="targetPoint" />
          </mxGeometry>
        </mxCell>
        <mxCell id="g5aPpiikLJBW9zNcwEnP-24" value="应用结果" style="shape=parallelogram;perimeter=parallelogramPerimeter;whiteSpace=wrap;html=1;fixedSize=1;fontSize=13;" parent="1" vertex="1">
          <mxGeometry x="690" y="360" width="90" height="32.5" as="geometry" />
        </mxCell>
        <mxCell id="g5aPpiikLJBW9zNcwEnP-29" value="" style="endArrow=none;dashed=1;html=1;fontSize=13;exitX=0.145;exitY=1.003;exitDx=0;exitDy=0;exitPerimeter=0;" parent="1" edge="1">
          <mxGeometry width="50" height="50" relative="1" as="geometry">
            <mxPoint x="174.20000000000005" y="414.96000000000004" as="sourcePoint" />
            <mxPoint x="174" y="150" as="targetPoint" />
          </mxGeometry>
        </mxCell>
        <mxCell id="g5aPpiikLJBW9zNcwEnP-30" value="" style="endArrow=none;dashed=1;html=1;fontSize=13;exitX=0.145;exitY=1.003;exitDx=0;exitDy=0;exitPerimeter=0;" parent="1" edge="1">
          <mxGeometry width="50" height="50" relative="1" as="geometry">
            <mxPoint x="251" y="414.96000000000004" as="sourcePoint" />
            <mxPoint x="251" y="150" as="targetPoint" />
          </mxGeometry>
        </mxCell>
        <mxCell id="g5aPpiikLJBW9zNcwEnP-31" value="" style="endArrow=none;dashed=1;html=1;fontSize=13;exitX=0.145;exitY=1.003;exitDx=0;exitDy=0;exitPerimeter=0;" parent="1" edge="1">
          <mxGeometry width="50" height="50" relative="1" as="geometry">
            <mxPoint x="460" y="414.96000000000004" as="sourcePoint" />
            <mxPoint x="460" y="150" as="targetPoint" />
          </mxGeometry>
        </mxCell>
        <mxCell id="g5aPpiikLJBW9zNcwEnP-32" value="" style="endArrow=none;dashed=1;html=1;fontSize=13;exitX=0.145;exitY=1.003;exitDx=0;exitDy=0;exitPerimeter=0;" parent="1" edge="1">
          <mxGeometry width="50" height="50" relative="1" as="geometry">
            <mxPoint x="651" y="413.96000000000004" as="sourcePoint" />
            <mxPoint x="651" y="150" as="targetPoint" />
          </mxGeometry>
        </mxCell>
        <mxCell id="g5aPpiikLJBW9zNcwEnP-34" value="模型优化" style="text;html=1;strokeColor=none;fillColor=none;align=center;verticalAlign=middle;whiteSpace=wrap;rounded=0;fontSize=13;labelBackgroundColor=#ffffff;" parent="1" vertex="1">
          <mxGeometry x="648" y="254.5" width="65" height="20" as="geometry" />
        </mxCell>
        <mxCell id="g5aPpiikLJBW9zNcwEnP-35" value="" style="endArrow=none;html=1;fontSize=13;" parent="1" edge="1">
          <mxGeometry width="50" height="50" relative="1" as="geometry">
            <mxPoint x="80" y="150" as="sourcePoint" />
            <mxPoint x="790" y="150" as="targetPoint" />
          </mxGeometry>
        </mxCell>
        <mxCell id="g5aPpiikLJBW9zNcwEnP-36" value="" style="endArrow=none;html=1;fontSize=13;entryX=0.809;entryY=0.003;entryDx=0;entryDy=0;entryPerimeter=0;rounded=0;" parent="1" edge="1">
          <mxGeometry width="50" height="50" relative="1" as="geometry">
            <mxPoint x="650" y="150" as="sourcePoint" />
            <mxPoint x="649.6599999999999" y="110.91200000000003" as="targetPoint" />
            <Array as="points">
              <mxPoint x="671" y="130" />
            </Array>
          </mxGeometry>
        </mxCell>
        <mxCell id="g5aPpiikLJBW9zNcwEnP-37" value="" style="endArrow=none;html=1;fontSize=13;entryX=0.809;entryY=0.003;entryDx=0;entryDy=0;entryPerimeter=0;rounded=0;" parent="1" edge="1">
          <mxGeometry width="50" height="50" relative="1" as="geometry">
            <mxPoint x="460" y="150" as="sourcePoint" />
            <mxPoint x="459.65999999999985" y="110.91200000000003" as="targetPoint" />
            <Array as="points">
              <mxPoint x="481" y="130" />
            </Array>
          </mxGeometry>
        </mxCell>
        <mxCell id="g5aPpiikLJBW9zNcwEnP-38" value="" style="endArrow=none;html=1;fontSize=13;entryX=0.809;entryY=0.003;entryDx=0;entryDy=0;entryPerimeter=0;rounded=0;" parent="1" edge="1">
          <mxGeometry width="50" height="50" relative="1" as="geometry">
            <mxPoint x="251" y="150" as="sourcePoint" />
            <mxPoint x="250.65999999999985" y="110.91200000000003" as="targetPoint" />
            <Array as="points">
              <mxPoint x="272" y="130" />
            </Array>
          </mxGeometry>
        </mxCell>
        <mxCell id="g5aPpiikLJBW9zNcwEnP-39" value="" style="endArrow=none;html=1;fontSize=13;entryX=0.809;entryY=0.003;entryDx=0;entryDy=0;entryPerimeter=0;rounded=0;" parent="1" edge="1">
          <mxGeometry width="50" height="50" relative="1" as="geometry">
            <mxPoint x="175" y="150" as="sourcePoint" />
            <mxPoint x="174.65999999999985" y="110.91200000000003" as="targetPoint" />
            <Array as="points">
              <mxPoint x="196" y="130" />
            </Array>
          </mxGeometry>
        </mxCell>
        <mxCell id="g5aPpiikLJBW9zNcwEnP-40" value="结果&amp;amp;反馈" style="text;html=1;strokeColor=none;fillColor=none;align=center;verticalAlign=middle;whiteSpace=wrap;rounded=0;labelBackgroundColor=#ffffff;fontSize=13;" parent="1" vertex="1">
          <mxGeometry x="691" y="121" width="70" height="20" as="geometry" />
        </mxCell>
        <mxCell id="g5aPpiikLJBW9zNcwEnP-41" value="建模&amp;amp;应用" style="text;html=1;strokeColor=none;fillColor=none;align=center;verticalAlign=middle;whiteSpace=wrap;rounded=0;labelBackgroundColor=#ffffff;fontSize=13;" parent="1" vertex="1">
          <mxGeometry x="520" y="121" width="90" height="20" as="geometry" />
        </mxCell>
        <mxCell id="g5aPpiikLJBW9zNcwEnP-42" value="数据探索和预处理" style="text;html=1;strokeColor=none;fillColor=none;align=center;verticalAlign=middle;whiteSpace=wrap;rounded=0;labelBackgroundColor=#ffffff;fontSize=13;" parent="1" vertex="1">
          <mxGeometry x="304" y="121" width="120" height="20" as="geometry" />
        </mxCell>
        <mxCell id="g5aPpiikLJBW9zNcwEnP-43" value="数据抽取" style="text;html=1;strokeColor=none;fillColor=none;align=center;verticalAlign=middle;whiteSpace=wrap;rounded=0;labelBackgroundColor=#ffffff;fontSize=13;" parent="1" vertex="1">
          <mxGeometry x="183" y="121" width="90" height="20" as="geometry" />
        </mxCell>
        <mxCell id="g5aPpiikLJBW9zNcwEnP-44" value="业务系统" style="text;html=1;strokeColor=none;fillColor=none;align=center;verticalAlign=middle;whiteSpace=wrap;rounded=0;labelBackgroundColor=#ffffff;fontSize=13;" parent="1" vertex="1">
          <mxGeometry x="88" y="121" width="90" height="20" as="geometry" />
        </mxCell>
        <mxCell id="2TULRxbm9QzcmqvMRMUv-5" value="" style="group" parent="1" vertex="1" connectable="0">
          <mxGeometry x="317" y="180" width="130" height="200" as="geometry" />
        </mxCell>
        <mxCell id="g5aPpiikLJBW9zNcwEnP-4" value="" style="rounded=0;whiteSpace=wrap;html=1;dashed=1;fontSize=13;" parent="2TULRxbm9QzcmqvMRMUv-5" vertex="1">
          <mxGeometry width="130" height="200" as="geometry" />
        </mxCell>
        <mxCell id="g5aPpiikLJBW9zNcwEnP-12" value="数据清洗" style="rounded=0;whiteSpace=wrap;html=1;fontSize=13;" parent="2TULRxbm9QzcmqvMRMUv-5" vertex="1">
          <mxGeometry x="20" y="22" width="90" height="30" as="geometry" />
        </mxCell>
        <mxCell id="g5aPpiikLJBW9zNcwEnP-13" value="数据变换" style="rounded=0;whiteSpace=wrap;html=1;fontSize=13;" parent="2TULRxbm9QzcmqvMRMUv-5" vertex="1">
          <mxGeometry x="20" y="147.5" width="90" height="30" as="geometry" />
        </mxCell>
        <mxCell id="g5aPpiikLJBW9zNcwEnP-14" value="属性规约" style="rounded=0;whiteSpace=wrap;html=1;fontSize=13;" parent="2TULRxbm9QzcmqvMRMUv-5" vertex="1">
          <mxGeometry x="20" y="85" width="90" height="30" as="geometry" />
        </mxCell>
        <mxCell id="2TULRxbm9QzcmqvMRMUv-7" style="edgeStyle=orthogonalEdgeStyle;rounded=0;orthogonalLoop=1;jettySize=auto;html=1;entryX=0;entryY=0.5;entryDx=0;entryDy=0;" parent="1" source="2TULRxbm9QzcmqvMRMUv-6" target="g5aPpiikLJBW9zNcwEnP-4" edge="1">
          <mxGeometry relative="1" as="geometry" />
        </mxCell>
        <mxCell id="2TULRxbm9QzcmqvMRMUv-6" value="缺失值与异常值分析" style="rounded=0;whiteSpace=wrap;html=1;fontSize=13;" parent="1" vertex="1">
          <mxGeometry x="273" y="180" width="20" height="200" as="geometry" />
        </mxCell>
        <mxCell id="2TULRxbm9QzcmqvMRMUv-20" style="edgeStyle=orthogonalEdgeStyle;rounded=0;orthogonalLoop=1;jettySize=auto;html=1;" parent="1" source="2TULRxbm9QzcmqvMRMUv-10" target="g5aPpiikLJBW9zNcwEnP-16" edge="1">
          <mxGeometry relative="1" as="geometry" />
        </mxCell>
        <mxCell id="2TULRxbm9QzcmqvMRMUv-10" value="数据建模" style="rounded=0;whiteSpace=wrap;html=1;horizontal=1;fontSize=13;" parent="1" vertex="1">
          <mxGeometry x="480" y="171.5" width="20" height="65.5" as="geometry" />
        </mxCell>
        <mxCell id="2TULRxbm9QzcmqvMRMUv-16" style="edgeStyle=orthogonalEdgeStyle;rounded=0;orthogonalLoop=1;jettySize=auto;html=1;" parent="1" source="2TULRxbm9QzcmqvMRMUv-11" target="2TULRxbm9QzcmqvMRMUv-12" edge="1">
          <mxGeometry relative="1" as="geometry">
            <Array as="points">
              <mxPoint x="510" y="262" />
              <mxPoint x="510" y="262" />
            </Array>
          </mxGeometry>
        </mxCell>
        <mxCell id="2TULRxbm9QzcmqvMRMUv-11" value="预处理后的增量数据" style="rounded=0;whiteSpace=wrap;html=1;horizontal=1;fontSize=13;" parent="1" vertex="1">
          <mxGeometry x="480" y="247.5" width="20" height="145" as="geometry" />
        </mxCell>
        <mxCell id="2TULRxbm9QzcmqvMRMUv-18" style="edgeStyle=orthogonalEdgeStyle;rounded=0;orthogonalLoop=1;jettySize=auto;html=1;" parent="1" source="2TULRxbm9QzcmqvMRMUv-12" target="g5aPpiikLJBW9zNcwEnP-20" edge="1">
          <mxGeometry relative="1" as="geometry" />
        </mxCell>
        <mxCell id="2TULRxbm9QzcmqvMRMUv-12" value="模型分析" style="rounded=0;whiteSpace=wrap;html=1;fontSize=13;" parent="1" vertex="1">
          <mxGeometry x="535" y="247" width="90" height="30" as="geometry" />
        </mxCell>
        <mxCell id="2TULRxbm9QzcmqvMRMUv-22" style="edgeStyle=orthogonalEdgeStyle;rounded=0;orthogonalLoop=1;jettySize=auto;html=1;exitX=0.996;exitY=0.122;exitDx=0;exitDy=0;exitPerimeter=0;" parent="1" target="2TULRxbm9QzcmqvMRMUv-10" edge="1" source="g5aPpiikLJBW9zNcwEnP-4">
          <mxGeometry relative="1" as="geometry">
            <mxPoint x="460" y="204" as="sourcePoint" />
            <Array as="points" />
          </mxGeometry>
        </mxCell>
        <mxCell id="2TULRxbm9QzcmqvMRMUv-23" style="edgeStyle=orthogonalEdgeStyle;rounded=0;orthogonalLoop=1;jettySize=auto;html=1;exitX=1.009;exitY=0.699;exitDx=0;exitDy=0;exitPerimeter=0;" parent="1" target="2TULRxbm9QzcmqvMRMUv-11" edge="1" source="g5aPpiikLJBW9zNcwEnP-4">
          <mxGeometry relative="1" as="geometry">
            <mxPoint x="460" y="320" as="sourcePoint" />
            <Array as="points" />
          </mxGeometry>
        </mxCell>
      </root>
    </mxGraphModel>
  </diagram>
</mxfile>
